<?xml version="1.0" encoding="UTF-8"?>
<svg xmlns="http://www.w3.org/2000/svg" xmlns:xlink="http://www.w3.org/1999/xlink" width="32pt" height="32pt" viewBox="0 0 32 32" version="1.1">
<g id="surface1">
<path style=" stroke:none;fill-rule:nonzero;fill:rgb(0%,0%,0%);fill-opacity:1;" d="M 31.59375 15.988281 L 29.671875 14.058594 C 29.410156 13.789062 29.058594 13.644531 28.683594 13.640625 L 27.140625 13.636719 C 26.160156 13.628906 25.359375 12.828125 25.359375 11.84375 L 25.359375 7.714844 C 25.359375 7.457031 25.148438 7.246094 24.890625 7.246094 C 24.632812 7.246094 24.421875 7.457031 24.421875 7.714844 L 24.421875 11.085938 L 23.117188 10.433594 C 22.960938 10.355469 22.859375 10.191406 22.859375 10.015625 C 22.855469 9.742188 22.863281 7.5625 22.859375 7.3125 C 22.859375 6.539062 22.230469 5.90625 21.453125 5.90625 L 16.328125 5.90625 C 15.554688 5.90625 14.921875 6.539062 14.921875 7.3125 L 14.921875 10.015625 C 14.921875 10.191406 14.824219 10.355469 14.664062 10.433594 L 13.359375 11.085938 L 13.359375 7.585938 C 13.359375 6.832031 13.480469 6.089844 13.71875 5.375 L 13.851562 4.96875 L 23.929688 4.96875 C 24.03125 5.273438 24.050781 5.316406 24.160156 5.679688 C 24.230469 5.925781 24.488281 6.074219 24.738281 6.003906 C 24.984375 5.933594 25.132812 5.671875 25.0625 5.425781 C 24.855469 4.742188 23.972656 2.136719 23.746094 1.429688 C 23.511719 0.722656 22.855469 0.25 22.113281 0.25 L 15.667969 0.25 C 14.925781 0.25 14.269531 0.722656 14.035156 1.429688 C 13.863281 1.949219 12.964844 4.65625 12.828125 5.078125 C 12.558594 5.886719 12.421875 6.730469 12.421875 7.585938 L 12.421875 11.84375 C 12.421875 12.859375 11.59375 13.6875 10.578125 13.6875 L 9.941406 13.6875 L 9.941406 13.222656 C 9.941406 12.449219 9.308594 11.816406 8.535156 11.816406 L 6.347656 11.816406 C 5.570312 11.816406 4.941406 12.449219 4.941406 13.222656 L 4.941406 13.691406 L 3.566406 13.691406 C 3.222656 13.691406 2.890625 13.816406 2.632812 14.046875 L 0.578125 15.871094 C 0.210938 16.195312 0 16.664062 0 17.15625 L 0 21.175781 C 0 21.433594 0.210938 21.644531 0.46875 21.644531 C 0.726562 21.644531 0.9375 21.433594 0.9375 21.175781 L 0.9375 19.5625 L 7.101562 19.5625 C 7.085938 19.578125 6.402344 19.863281 6.34375 19.886719 C 5.824219 20.109375 5.488281 20.617188 5.488281 21.183594 L 5.488281 28.9375 L 0.9375 28.9375 L 0.9375 23.375 C 0.9375 23.117188 0.726562 22.90625 0.46875 22.90625 C 0.210938 22.90625 0 23.117188 0 23.375 L 0 30.34375 C 0 31.117188 0.628906 31.75 1.40625 31.75 L 30.59375 31.75 C 31.367188 31.75 32 31.117188 32 30.34375 L 32 16.980469 C 32 16.605469 31.855469 16.253906 31.59375 15.988281 Z M 31.0625 17.519531 L 31.0625 18.769531 L 29.480469 18.769531 L 29.480469 17.519531 Z M 16.328125 6.84375 L 21.453125 6.84375 C 21.710938 6.84375 21.921875 7.054688 21.921875 7.3125 L 21.921875 8.457031 C 21.675781 8.324219 21.394531 8.25 21.09375 8.25 L 16.6875 8.25 C 16.386719 8.25 16.105469 8.324219 15.859375 8.457031 L 15.859375 7.3125 C 15.859375 7.054688 16.070312 6.84375 16.328125 6.84375 Z M 16.035156 4.03125 L 16.347656 3.09375 L 21.433594 3.09375 L 21.746094 4.03125 Z M 14.925781 1.722656 C 15.03125 1.402344 15.332031 1.1875 15.667969 1.1875 L 22.113281 1.1875 C 22.449219 1.1875 22.75 1.402344 22.855469 1.722656 L 23.621094 4.03125 L 22.734375 4.03125 L 22.261719 2.605469 C 22.171875 2.335938 21.921875 2.15625 21.636719 2.15625 L 16.144531 2.15625 C 15.859375 2.15625 15.609375 2.335938 15.523438 2.605469 L 15.050781 4.03125 L 14.160156 4.03125 Z M 5.878906 13.222656 C 5.878906 12.964844 6.085938 12.753906 6.347656 12.753906 L 8.535156 12.753906 C 8.792969 12.753906 9.003906 12.964844 9.003906 13.222656 L 9.003906 13.6875 L 5.878906 13.691406 Z M 1.199219 16.570312 L 3.257812 14.746094 C 3.34375 14.671875 3.453125 14.628906 3.566406 14.628906 C 4.171875 14.628906 5.730469 14.628906 6.292969 14.628906 L 7.277344 16.539062 C 7.308594 16.605469 7.332031 16.675781 7.347656 16.75 L 1.050781 16.75 C 1.089844 16.683594 1.140625 16.625 1.199219 16.570312 Z M 0.9375 17.6875 L 7.363281 17.6875 L 7.363281 18.625 L 0.9375 18.625 Z M 0.9375 30.34375 L 0.9375 29.875 L 5.488281 29.875 L 5.488281 30.34375 C 5.488281 30.601562 5.277344 30.8125 5.019531 30.8125 L 1.40625 30.8125 C 1.148438 30.8125 0.9375 30.601562 0.9375 30.34375 Z M 6.34375 30.8125 C 6.394531 30.664062 6.425781 30.507812 6.425781 30.34375 L 6.425781 29.875 L 8.417969 29.875 C 8.679688 29.875 8.886719 29.664062 8.886719 29.40625 C 8.886719 29.148438 8.679688 28.9375 8.417969 28.9375 L 6.425781 28.9375 L 6.425781 21.183594 C 6.425781 20.992188 6.535156 20.824219 6.710938 20.75 L 7.445312 20.4375 C 7.964844 20.21875 8.300781 19.710938 8.300781 19.144531 C 8.300781 18.921875 8.300781 17.015625 8.300781 16.894531 C 8.300781 16.625 8.234375 16.351562 8.109375 16.109375 L 7.347656 14.628906 C 8.101562 14.628906 9.863281 14.625 10.578125 14.625 C 12.011719 14.625 13.195312 13.535156 13.34375 12.140625 L 15.082031 11.273438 C 15.5625 11.03125 15.859375 10.550781 15.859375 10.015625 C 15.859375 9.558594 16.230469 9.1875 16.6875 9.1875 L 21.09375 9.1875 C 21.550781 9.1875 21.921875 9.558594 21.921875 10.015625 C 21.921875 10.550781 22.21875 11.03125 22.699219 11.273438 L 24.4375 12.140625 C 24.585938 13.5 25.742188 14.566406 27.136719 14.574219 L 28.675781 14.578125 C 28.800781 14.578125 28.921875 14.628906 29.007812 14.71875 L 30.859375 16.582031 L 29.324219 16.582031 C 28.894531 16.582031 28.542969 16.933594 28.542969 17.363281 L 28.542969 18.925781 C 28.542969 19.359375 28.894531 19.707031 29.324219 19.707031 L 31.0625 19.707031 L 31.0625 28.9375 L 25.554688 28.9375 C 26.59375 27.871094 27.382812 26.554688 27.816406 25.089844 L 28.695312 25.089844 C 29.472656 25.089844 30.101562 24.457031 30.101562 23.683594 L 30.101562 22.058594 C 30.101562 21.28125 29.472656 20.652344 28.695312 20.652344 L 28.03125 20.652344 C 27.195312 16.367188 23.414062 13.125 18.890625 13.125 C 13.757812 13.125 9.578125 17.300781 9.578125 22.4375 C 9.578125 24.964844 10.589844 27.257812 12.230469 28.9375 L 10.621094 28.9375 C 10.363281 28.9375 10.152344 29.148438 10.152344 29.40625 C 10.152344 29.664062 10.363281 29.875 10.621094 29.875 L 13.292969 29.875 C 13.769531 30.234375 14.28125 30.546875 14.820312 30.8125 Z M 10.515625 22.4375 C 10.515625 17.820312 14.273438 14.0625 18.890625 14.0625 C 23.507812 14.0625 27.265625 17.820312 27.265625 22.4375 C 27.265625 27.054688 23.507812 30.8125 18.890625 30.8125 C 14.273438 30.8125 10.515625 27.054688 10.515625 22.4375 Z M 28.164062 21.589844 L 28.695312 21.589844 C 28.953125 21.589844 29.164062 21.800781 29.164062 22.058594 L 29.164062 23.683594 C 29.164062 23.941406 28.953125 24.152344 28.695312 24.152344 L 28.042969 24.152344 C 28.148438 23.597656 28.203125 23.023438 28.203125 22.4375 C 28.203125 22.152344 28.191406 21.867188 28.164062 21.589844 Z M 30.59375 30.8125 L 22.960938 30.8125 C 23.5 30.546875 24.011719 30.234375 24.488281 29.875 L 31.0625 29.875 L 31.0625 30.34375 C 31.0625 30.601562 30.851562 30.8125 30.59375 30.8125 Z M 30.59375 30.8125 "/>
<path style=" stroke:none;fill-rule:nonzero;fill:rgb(0%,0%,0%);fill-opacity:1;" d="M 22.898438 28.703125 C 24.0625 27.957031 24.996094 26.90625 25.59375 25.664062 C 25.707031 25.429688 25.609375 25.148438 25.375 25.035156 C 25.144531 24.925781 24.863281 25.023438 24.75 25.253906 C 23.671875 27.492188 21.371094 28.9375 18.890625 28.9375 C 15.308594 28.9375 12.390625 26.023438 12.390625 22.4375 C 12.390625 18.851562 15.308594 15.9375 18.890625 15.9375 C 22.476562 15.9375 25.390625 18.851562 25.390625 22.4375 C 25.390625 22.730469 25.371094 23.023438 25.332031 23.3125 C 25.296875 23.570312 25.476562 23.804688 25.734375 23.839844 C 25.992188 23.875 26.226562 23.695312 26.261719 23.4375 C 26.304688 23.109375 26.328125 22.773438 26.328125 22.4375 C 26.328125 18.335938 22.992188 15 18.890625 15 C 14.789062 15 11.453125 18.335938 11.453125 22.4375 C 11.453125 26.539062 14.789062 29.875 18.890625 29.875 C 20.316406 29.875 21.703125 29.46875 22.898438 28.703125 Z M 22.898438 28.703125 "/>
<path style=" stroke:none;fill-rule:nonzero;fill:rgb(0%,0%,0%);fill-opacity:1;" d="M 15.296875 22.4375 C 15.296875 24.417969 16.910156 26.03125 18.890625 26.03125 C 20.871094 26.03125 22.484375 24.417969 22.484375 22.4375 C 22.484375 20.457031 20.871094 18.84375 18.890625 18.84375 C 16.910156 18.84375 15.296875 20.457031 15.296875 22.4375 Z M 21.546875 22.4375 C 21.546875 23.902344 20.355469 25.09375 18.890625 25.09375 C 17.425781 25.09375 16.234375 23.902344 16.234375 22.4375 C 16.234375 20.972656 17.425781 19.78125 18.890625 19.78125 C 20.355469 19.78125 21.546875 20.972656 21.546875 22.4375 Z M 21.546875 22.4375 "/>
<path style=" stroke:none;fill-rule:nonzero;fill:rgb(0%,0%,0%);fill-opacity:1;" d="M 17.171875 22.4375 C 17.171875 23.386719 17.941406 24.15625 18.890625 24.15625 C 19.839844 24.15625 20.609375 23.386719 20.609375 22.4375 C 20.609375 21.488281 19.839844 20.71875 18.890625 20.71875 C 17.941406 20.71875 17.171875 21.488281 17.171875 22.4375 Z M 19.671875 22.4375 C 19.671875 22.867188 19.320312 23.21875 18.890625 23.21875 C 18.460938 23.21875 18.109375 22.867188 18.109375 22.4375 C 18.109375 22.007812 18.460938 21.65625 18.890625 21.65625 C 19.320312 21.65625 19.671875 22.007812 19.671875 22.4375 Z M 19.671875 22.4375 "/>
<path style=" stroke:none;fill-rule:nonzero;fill:rgb(0%,0%,0%);fill-opacity:1;" d="M 17.546875 11.0625 L 20.234375 11.0625 C 20.492188 11.0625 20.703125 10.851562 20.703125 10.59375 C 20.703125 10.335938 20.492188 10.125 20.234375 10.125 L 17.546875 10.125 C 17.289062 10.125 17.078125 10.335938 17.078125 10.59375 C 17.078125 10.851562 17.289062 11.0625 17.546875 11.0625 Z M 17.546875 11.0625 "/>
</g>
</svg>
