<svg width="32" height="21" viewBox="0 0 32 21" fill="none" xmlns="http://www.w3.org/2000/svg">
<path d="M13.1798 9.49054C13.8433 9.15677 14.345 8.78503 14.6888 8.3833C15.3003 7.6598 15.6021 6.70047 15.6021 5.51129C15.6021 4.35409 15.3003 3.36478 14.6968 2.53535C13.6895 1.18428 11.9846 0.492762 9.5743 0.456787H0.0249023V19.9493H8.92874C9.93205 19.9493 10.8614 19.8634 11.7208 19.6875C12.5802 19.5096 13.3237 19.1838 13.9533 18.7082C14.5129 18.2944 14.9806 17.7808 15.3523 17.1752C15.9399 16.2599 16.2337 15.2226 16.2337 14.0674C16.2337 12.9481 15.9759 11.9948 15.4642 11.2113C14.9466 10.4279 14.1871 9.85429 13.1798 9.49054ZM3.96418 3.84244H8.2652C9.21055 3.84244 9.99001 3.94437 10.6016 4.14623C11.3091 4.44003 11.6629 5.03762 11.6629 5.94899C11.6629 6.76642 11.393 7.33803 10.8594 7.6598C10.3218 7.98158 9.62426 8.14347 8.76885 8.14347H3.96418V3.84244ZM10.7655 16.2239C10.2898 16.4537 9.62027 16.5676 8.76286 16.5676H3.96418V11.3692H8.82881C9.67623 11.3752 10.3358 11.4872 10.8074 11.697C11.6469 12.0767 12.0646 12.7723 12.0646 13.7896C12.0646 14.9887 11.6329 15.7962 10.7655 16.2239Z" fill="#FAFFBF"/>
<path d="M28.9264 1.36617H20.4583V3.79249H28.9264V1.36617Z" fill="#FAFFBF"/>
<path d="M31.8685 10.9415C31.6926 9.81233 31.3048 8.81901 30.7013 7.9616C30.0397 6.99028 29.2003 6.27877 28.179 5.82908C27.1617 5.37739 26.0165 5.15155 24.7414 5.15355C22.6009 5.15355 20.8621 5.82308 19.517 7.15216C18.1759 8.48524 17.5044 10.4019 17.5044 12.9002C17.5044 15.5643 18.2459 17.489 19.7368 18.6702C21.2218 19.8534 22.9366 20.443 24.8833 20.443C27.2397 20.443 29.0724 19.7415 30.3815 18.3424C31.2189 17.459 31.6926 16.5896 31.7965 15.7362H27.8952C27.6694 16.1579 27.4075 16.4877 27.1077 16.7275C26.5641 17.1672 25.8566 17.3871 24.9892 17.3871C24.1638 17.3871 23.4643 17.2052 22.8807 16.8435C21.9173 16.2639 21.4137 15.2486 21.3497 13.8036H31.9964C32.0124 12.5584 31.9724 11.6011 31.8685 10.9415ZM21.4457 11.3153C21.5856 10.3779 21.9253 9.63445 22.465 9.08483C23.0046 8.53721 23.7681 8.2614 24.7454 8.2594C25.6468 8.2594 26.4002 8.51722 27.0138 9.03486C27.6194 9.5565 27.9612 10.314 28.0311 11.3153H21.4457Z" fill="#FAFFBF"/>
</svg>
