<svg width="27" height="27" viewBox="0 0 27 27" fill="none" xmlns="http://www.w3.org/2000/svg">
<path d="M18.0433 0H8.20152C3.67264 0 0 3.67264 0 8.20152V18.0433C0 22.5722 3.67264 26.2449 8.20152 26.2449H18.0433C22.5722 26.2449 26.2449 22.5722 26.2449 18.0433V8.20152C26.2449 3.67264 22.5722 0 18.0433 0ZM23.7844 18.0433C23.7844 21.2091 21.2091 23.7844 18.0433 23.7844H8.20152C5.03573 23.7844 2.46045 21.2091 2.46045 18.0433V8.20152C2.46045 5.03573 5.03573 2.46045 8.20152 2.46045H18.0433C21.2091 2.46045 23.7844 5.03573 23.7844 8.20152V18.0433Z" fill="#FAFFBF"/>
<path d="M13.1225 6.56121C9.49906 6.56121 6.56128 9.49899 6.56128 13.1224C6.56128 16.7459 9.49906 19.6836 13.1225 19.6836C16.7459 19.6836 19.6837 16.7459 19.6837 13.1224C19.6837 9.49899 16.7459 6.56121 13.1225 6.56121ZM13.1225 17.2232C10.8622 17.2232 9.02173 15.3828 9.02173 13.1224C9.02173 10.8604 10.8622 9.02167 13.1225 9.02167C15.3828 9.02167 17.2233 10.8604 17.2233 13.1224C17.2233 15.3828 15.3828 17.2232 13.1225 17.2232Z" fill="#FAFFBF"/>
<path d="M20.1757 6.94339C20.6585 6.94339 21.05 6.55197 21.05 6.06911C21.05 5.58626 20.6585 5.19483 20.1757 5.19483C19.6928 5.19483 19.3014 5.58626 19.3014 6.06911C19.3014 6.55197 19.6928 6.94339 20.1757 6.94339Z" fill="#FAFFBF"/>
</svg>
