<svg width="31" height="30" viewBox="0 0 31 30" fill="none" xmlns="http://www.w3.org/2000/svg">
<path d="M15.7439 0.0158691H15.7364C7.47014 0.0158691 0.748047 6.73984 0.748047 15.008C0.748047 18.2875 1.80499 21.3272 3.60217 23.7953L1.73378 29.3648L7.49638 27.5227C9.86701 29.0931 12.6949 30.0001 15.7439 30.0001C24.0102 30.0001 30.7323 23.2743 30.7323 15.008C30.7323 6.74171 24.0102 0.0158691 15.7439 0.0158691ZM24.4675 21.1866C24.1058 22.208 22.6703 23.055 21.5253 23.3024C20.7419 23.4692 19.7187 23.6022 16.2743 22.1742C11.8685 20.3489 9.0312 15.8719 8.81006 15.5814C8.5983 15.291 7.02975 13.2108 7.02975 11.0594C7.02975 8.90807 8.1223 7.8605 8.56269 7.41074C8.92438 7.04155 9.52219 6.87289 10.0956 6.87289C10.2812 6.87289 10.448 6.88226 10.5979 6.88976C11.0383 6.9085 11.2594 6.93474 11.5499 7.63C11.9116 8.50141 12.7923 10.6528 12.8973 10.8739C13.0041 11.095 13.1109 11.3949 12.961 11.6854C12.8205 11.9852 12.6968 12.1183 12.4756 12.3731C12.2545 12.628 12.0446 12.8229 11.8235 13.0965C11.6211 13.3345 11.3925 13.5894 11.6473 14.0298C11.9022 14.4608 12.783 15.8982 14.0798 17.0525C15.7533 18.5424 17.1101 19.0184 17.5954 19.2208C17.9571 19.3707 18.3882 19.3351 18.6524 19.054C18.9878 18.6923 19.402 18.0926 19.8237 17.5023C20.1235 17.0788 20.502 17.0263 20.8993 17.1762C21.3041 17.3168 23.4461 18.3756 23.8865 18.5949C24.3269 18.816 24.6174 18.9209 24.7242 19.1065C24.8291 19.292 24.8291 20.1634 24.4675 21.1866Z" fill="#DFDFDF"/>
</svg>
